<?xml version="1.0" standalone="no"?>
<!DOCTYPE svg PUBLIC "-//W3C//DTD SVG 20010904//EN"
 "http://www.w3.org/TR/2001/REC-SVG-20010904/DTD/svg10.dtd">
<svg version="1.0" xmlns="http://www.w3.org/2000/svg"
 width="997.000000pt" height="1024.000000pt" viewBox="0 0 997.000000 1024.000000"
 preserveAspectRatio="xMidYMid meet">

<g transform="translate(0.000000,1024.000000) scale(0.100000,-0.100000)"
fill="#000000" stroke="none">
<path d="M580 10200 c0 -22 -4 -40 -10 -40 -5 0 -10 -7 -10 -15 0 -8 -4 -23
-9 -33 -5 -9 -22 -45 -38 -79 -15 -34 -31 -56 -35 -50 -4 6 -14 -5 -24 -26
-10 -20 -23 -37 -29 -37 -21 0 -58 -63 -63 -106 -2 -24 -10 -48 -17 -54 -9 -8
-7 -21 12 -60 13 -28 28 -50 33 -50 6 0 10 -11 10 -25 0 -14 4 -25 9 -25 12 0
71 -59 71 -70 0 -5 4 -10 10 -12 12 -4 43 -78 32 -78 -5 0 -13 -15 -19 -32 -6
-24 -14 -32 -27 -30 -10 2 -25 -3 -33 -10 -18 -15 -228 -14 -247 1 -6 4 -35
16 -63 25 -29 10 -53 21 -53 26 0 8 -8 11 -63 26 -16 5 -17 -91 -17 -1915 0
-1457 3 -1921 12 -1921 6 0 9 2 6 5 -3 3 7 19 22 35 25 26 35 30 84 30 43 0
62 5 78 20 12 11 30 20 40 20 11 0 32 7 48 15 17 9 30 11 30 5 0 -16 27 -12
34 5 4 12 30 15 145 15 82 0 142 4 146 10 3 6 22 10 41 10 19 0 34 -4 34 -10
0 -6 33 -10 80 -10 47 0 80 -4 80 -10 0 -5 18 -10 40 -10 23 0 40 -5 40 -11 0
-8 23 -9 78 -4 92 9 80 9 169 0 69 -7 73 -6 73 12 0 18 9 21 73 27 39 4 90 13
112 21 22 8 79 17 128 20 65 5 87 10 87 21 0 11 18 14 80 14 44 0 80 3 80 8 0
4 18 8 40 8 22 1 40 -3 40 -7 0 -16 70 -10 76 6 5 12 25 15 96 15 58 0 99 5
117 15 16 8 31 11 35 8 3 -3 14 1 23 9 11 10 39 16 73 17 30 0 56 5 58 11 2 5
21 10 43 10 21 0 39 4 39 9 0 6 36 10 80 10 46 0 80 -4 80 -10 0 -5 18 0 39
11 25 12 41 16 43 9 2 -7 12 -7 30 2 15 6 25 15 23 20 -3 4 57 6 132 5 109 -2
145 -6 172 -20 25 -14 35 -15 41 -6 5 8 10 9 14 2 3 -6 24 -13 45 -17 43 -7
101 -63 101 -96 0 -11 7 -19 16 -19 8 0 12 -4 9 -10 -3 -5 -15 -10 -26 -10
-11 0 -33 -13 -49 -30 -23 -24 -38 -30 -70 -30 -29 0 -40 -4 -40 -15 0 -11
-11 -15 -40 -15 -22 0 -40 -4 -40 -8 0 -5 -53 -12 -117 -15 -66 -4 -119 -11
-121 -17 -2 -5 -10 -10 -18 -10 -10 0 -14 -12 -14 -40 0 -40 0 -40 38 -40 21
0 42 -4 48 -9 5 -5 48 -12 97 -16 76 -6 87 -5 87 9 0 12 10 16 40 16 22 0 40
-4 40 -8 0 -5 53 -10 118 -11 222 -5 221 -5 210 -18 -17 -21 1 -15 61 21 31
18 70 37 86 40 17 4 37 13 45 20 8 7 30 19 47 27 18 8 33 17 33 21 0 4 16 14
35 22 34 15 35 17 35 70 0 31 -4 56 -10 56 -5 0 -10 -9 -10 -20 0 -18 -7 -20
-64 -20 -106 0 -186 11 -186 26 0 10 -13 14 -40 14 l-40 0 0 40 c0 32 4 40 19
40 10 0 24 7 31 15 7 9 19 13 27 11 8 -3 32 3 53 14 22 11 54 20 73 20 18 0
39 6 46 13 11 10 12 9 6 -3 -6 -12 -5 -13 6 -2 7 6 21 12 30 12 9 0 22 7 29
15 11 14 14 13 25 -2 10 -13 13 10 19 128 7 146 4 179 -19 179 -19 0 -55 93
-55 145 0 52 38 137 70 157 18 11 20 23 18 98 -1 66 -2 75 -7 41 -10 -73 -26
-59 -23 20 4 79 -7 125 -17 74 -4 -16 -7 14 -7 67 0 64 -6 110 -16 135 -9 21
-22 67 -31 103 -15 66 -33 121 -48 152 -5 10 -9 27 -9 39 0 20 -36 80 -52 87
-4 2 -8 12 -8 22 0 10 -5 20 -11 22 -15 5 -60 123 -66 173 -5 43 -70 185 -84
185 -5 0 -9 18 -9 40 0 38 -2 40 -30 40 l-30 0 0 200 c0 171 2 200 15 200 25
0 21 96 -5 112 -11 7 -20 17 -20 23 1 22 -46 105 -62 110 -10 4 -18 13 -18 22
0 17 -114 133 -131 133 -5 0 -9 6 -9 13 0 7 -8 22 -17 33 -14 14 -19 40 -20
103 -2 47 1 87 6 90 5 3 12 42 15 86 3 44 3 75 0 68 -8 -17 -156 136 -178 185
-27 60 -18 149 23 225 36 67 39 92 11 109 -11 7 -20 21 -20 30 0 21 -59 83
-80 83 -8 1 -14 7 -12 14 1 6 -4 22 -13 34 -9 13 -15 44 -15 81 0 53 -3 62
-32 92 -22 22 -43 34 -60 34 -16 0 -28 4 -28 8 0 14 -74 45 -78 33 -2 -7 -15
-6 -39 4 -19 8 -55 15 -79 15 -32 0 -44 4 -44 15 0 11 11 15 40 15 22 0 40 4
40 10 0 12 59 70 71 70 5 0 9 5 9 11 0 6 7 17 15 25 8 9 15 20 15 25 0 5 -409
9 -1045 9 l-1045 0 0 -40z m1385 -510 c3 -5 17 -10 30 -10 23 0 85 -52 85 -71
0 -5 7 -9 15 -9 18 0 65 -47 65 -65 0 -8 7 -15 15 -15 11 0 15 -11 15 -40 0
-29 -4 -40 -15 -40 -8 0 -15 -9 -15 -20 0 -11 -8 -24 -17 -27 -10 -4 -22 -12
-26 -20 -5 -9 -30 -13 -75 -13 -55 1 -72 5 -95 24 -16 12 -29 29 -30 37 -2 8
-13 29 -25 46 -12 17 -22 42 -22 55 0 13 -6 32 -13 43 -16 25 -22 75 -8 75 5
0 12 8 15 18 10 29 88 54 101 32z m1392 -1512 c-2 -13 -4 -3 -4 22 0 25 2 35
4 23 2 -13 2 -33 0 -45z m3 -229 c0 -27 -3 -48 -8 -45 -7 4 -4 96 4 96 2 0 4
-23 4 -51z m407 -1181 c-3 -7 -5 -2 -5 12 0 14 2 19 5 13 2 -7 2 -19 0 -25z
m-2579 -1015 c-10 -2 -28 -2 -40 0 -13 2 -5 4 17 4 22 1 32 -1 23 -4z"/>
<path d="M5360 10200 l0 -40 55 0 55 0 0 -40 c0 -29 -4 -40 -15 -40 -8 0 -15
-7 -15 -15 0 -11 11 -15 40 -15 29 0 40 4 40 15 0 8 7 15 15 15 11 0 15 -11
15 -40 0 -36 3 -40 25 -40 23 0 25 -4 25 -40 l0 -40 40 0 40 0 0 40 c0 29 4
40 15 40 11 0 15 -11 15 -40 0 -29 -4 -40 -15 -40 -11 0 -15 -11 -15 -40 l0
-40 40 0 40 0 0 -40 0 -40 -87 0 c-83 0 -88 -1 -109 -27 -19 -23 -27 -26 -73
-24 -40 2 -51 -1 -51 -14 0 -8 -7 -15 -15 -15 -8 0 -25 -6 -36 -12 -17 -10
-23 -10 -26 0 -6 14 -83 17 -83 2 0 -6 -33 -10 -80 -10 -44 0 -80 -4 -80 -9 0
-4 -55 -13 -122 -20 -68 -7 -131 -17 -140 -22 -10 -5 -45 -9 -78 -9 -33 0 -60
-3 -60 -8 0 -4 -29 -18 -65 -30 -36 -13 -65 -28 -65 -33 0 -5 -9 -9 -19 -9
-28 0 -91 -67 -91 -96 0 -14 -7 -36 -16 -50 -14 -20 -17 -51 -17 -157 1 -179
12 -337 25 -337 7 0 9 -22 5 -62 -3 -35 -2 -72 2 -83 5 -13 3 -24 -7 -31 -12
-9 -12 -14 -1 -33 l14 -23 210 5 c214 5 253 10 237 31 -5 6 -10 18 -10 26 -11
180 -13 297 -7 345 6 52 12 64 48 100 48 46 94 65 170 70 109 7 399 16 867 25
267 6 553 15 635 20 83 6 249 13 371 15 122 3 236 10 253 15 35 10 489 25
1276 42 662 14 646 14 701 -18 24 -14 44 -30 44 -35 0 -5 6 -9 14 -9 15 0 20
-25 36 -180 5 -52 7 -117 4 -145 -3 -27 1 -167 10 -310 33 -555 77 -1618 76
-1842 0 -46 4 -83 9 -83 11 0 19 -268 17 -590 0 -113 1 -241 2 -285 8 -281 12
-381 27 -645 9 -162 19 -355 22 -428 2 -73 8 -132 14 -132 13 0 12 -477 -1
-482 -6 -2 -13 -116 -19 -283 -5 -171 -13 -293 -21 -312 -11 -31 -26 -43 -90
-74 -15 -7 -79 -13 -160 -15 -74 -1 -189 -10 -255 -18 -65 -9 -140 -16 -165
-16 -26 0 -50 -3 -54 -7 -12 -12 -96 -30 -102 -22 -2 5 -16 4 -29 -1 -13 -5
-37 -9 -52 -8 -15 0 -46 -2 -68 -6 -98 -14 -208 -26 -300 -31 -55 -4 -119 -13
-143 -22 -24 -8 -46 -13 -49 -9 -3 3 -14 1 -24 -5 -10 -5 -38 -11 -61 -13 -99
-9 -158 -19 -158 -27 0 -5 -22 -9 -48 -9 -26 0 -53 -5 -59 -11 -6 -6 -70 -15
-142 -20 -82 -6 -154 -16 -191 -29 -33 -11 -75 -20 -94 -20 -19 0 -37 -6 -40
-12 -5 -10 -7 -10 -12 0 -8 17 -22 15 -27 -6 -7 -29 4 60 13 113 6 28 23 124
40 215 17 91 38 203 46 250 56 305 108 548 123 585 5 11 15 40 22 65 8 26 15
37 17 27 5 -26 22 -10 22 21 0 22 -2 24 -11 12 -16 -24 -2 25 28 94 23 54 25
67 20 165 -6 125 -29 204 -110 367 -59 120 -74 164 -56 164 6 0 9 6 6 14 -4
10 0 12 14 9 19 -5 27 -23 11 -23 -5 0 -7 -13 -4 -30 2 -16 8 -30 12 -30 5 0
6 9 3 20 -11 41 12 50 127 50 59 0 122 3 139 6 28 6 31 10 31 45 0 38 -9 46
-43 40 -4 -1 -20 13 -34 30 -18 21 -32 29 -45 25 -15 -3 -22 3 -30 26 -7 20
-22 35 -44 44 -19 8 -34 18 -34 23 0 5 -20 18 -45 30 -25 12 -45 26 -45 32 0
7 -12 23 -26 36 -21 19 -35 24 -65 21 -42 -4 -43 -4 -72 97 -23 77 -36 133
-51 220 -15 86 -118 502 -142 574 -16 48 -14 66 21 186 24 79 45 160 46 170 0
2 5 19 10 37 6 18 12 40 14 48 1 8 10 41 18 73 13 47 13 59 2 63 -7 3 -61 -2
-121 -11 -423 -63 -877 -44 -1724 70 l-35 5 30 -10 c61 -20 487 -90 548 -90
45 0 67 -8 67 -26 0 -12 -4 -12 -20 -2 -24 16 -55 0 -55 -27 0 -27 31 -43 54
-28 16 10 20 9 25 -2 3 -8 1 -15 -5 -15 -14 0 -40 -66 -33 -85 9 -22 -16 -106
-33 -112 -8 -3 -19 -1 -26 6 -6 6 -20 11 -30 11 -13 0 -17 5 -13 15 3 8 -1 18
-8 22 -7 5 -15 15 -18 23 -4 11 -9 7 -18 -12 -16 -34 -24 -35 -38 -3 -10 21
-15 23 -37 15 -54 -21 -72 -39 -67 -69 2 -19 12 -32 26 -36 l21 -8 -22 -4
c-13 -2 -23 -10 -23 -18 0 -7 -7 -15 -15 -19 -20 -7 -20 -46 0 -46 12 0 14 -8
9 -40 -5 -33 -4 -40 10 -40 12 0 16 -10 16 -40 0 -29 4 -40 15 -40 8 0 15 -4
15 -10 0 -5 -16 -9 -35 -8 -38 1 -62 -13 -51 -31 4 -6 16 -11 26 -11 10 0 22
-4 25 -10 3 -5 0 -10 -8 -10 -8 0 -17 -9 -20 -21 -7 -25 -27 -16 -27 13 0 11
-8 22 -20 25 -11 3 -20 9 -20 14 0 18 -32 8 -37 -11 -3 -11 -10 -20 -17 -20
-6 0 -3 -7 8 -15 20 -15 16 -45 -8 -45 -14 0 -31 -29 -21 -38 3 -3 22 -1 43 4
27 7 38 15 40 32 4 27 32 30 32 2 0 -31 28 -23 35 10 8 37 45 41 68 8 14 -20
16 -21 16 -5 1 22 24 47 43 47 8 -1 6 -6 -6 -15 -18 -14 -18 -15 -2 -41 13
-19 24 -24 39 -21 21 5 21 5 3 -6 -11 -7 -32 -25 -48 -42 -15 -16 -28 -24 -28
-17 0 15 -72 6 -78 -9 -2 -5 -16 -9 -32 -9 -19 0 -29 -6 -33 -20 -8 -32 12
-35 42 -6 32 31 46 34 29 7 -10 -17 -9 -23 6 -40 19 -21 19 -21 -8 -21 -15 0
-25 -4 -22 -9 3 -5 15 -7 26 -4 20 5 28 -11 10 -22 -5 -3 -15 -16 -21 -28 -9
-18 -9 -20 2 -9 15 14 55 16 63 4 3 -5 -14 -13 -37 -19 -59 -16 -90 -60 -95
-135 -3 -38 0 -63 8 -73 7 -9 9 -19 5 -23 -4 -4 -10 -1 -12 6 -3 6 -9 12 -14
12 -6 0 -7 -6 -2 -12 4 -7 6 -21 5 -30 -2 -12 2 -15 18 -11 11 3 20 9 20 13 0
5 18 1 40 -8 22 -9 38 -22 36 -28 -3 -6 1 -17 7 -23 8 -8 8 -11 -1 -11 -6 0
-15 7 -20 16 -7 13 -13 14 -30 5 -11 -6 -29 -11 -40 -11 -13 0 -21 -9 -25 -28
-4 -22 -14 -31 -39 -38 -33 -10 -45 -33 -20 -41 6 -3 12 2 12 11 0 10 9 16 23
16 l22 -1 -22 -18 c-13 -11 -23 -29 -23 -40 0 -12 -4 -21 -9 -21 -5 0 -12 -10
-16 -22 l-7 -23 -8 25 c-7 23 -8 23 -9 4 -1 -12 -8 -27 -16 -34 -8 -7 -15 -16
-15 -21 0 -14 28 -11 33 4 3 6 6 2 6 -10 1 -14 -5 -23 -13 -23 -8 0 -18 -10
-22 -22 -4 -13 -14 -28 -22 -34 -10 -7 -11 -13 -4 -18 6 -3 13 -2 17 4 3 5 10
10 16 10 5 0 4 -9 -3 -20 -11 -16 -9 -23 11 -41 l23 -22 -7 22 c-5 16 -2 21
10 21 13 0 16 -6 11 -22 -3 -13 -6 -29 -6 -36 0 -7 -5 -10 -10 -7 -14 9 -25
-25 -14 -43 12 -18 -43 -82 -72 -82 -12 0 -15 -3 -7 -8 8 -5 9 -13 3 -22 -5
-8 -6 -26 -3 -41 3 -16 -3 -42 -17 -68 -20 -39 -20 -44 -5 -73 15 -30 20 -58
10 -58 -2 0 -16 12 -30 26 -17 17 -24 32 -20 43 4 9 8 29 11 45 2 15 6 37 10
48 4 13 -8 5 -31 -21 -34 -38 -36 -43 -26 -72 14 -42 14 -49 -4 -49 -8 0 -15
-4 -15 -10 0 -5 -7 -10 -15 -10 -8 0 -15 -4 -15 -9 0 -5 -10 -11 -22 -13 -24
-3 -38 -28 -16 -28 8 0 33 9 56 20 22 11 46 20 52 20 5 0 10 7 10 15 0 8 5 15
11 15 6 0 8 -6 5 -12 -3 -7 -9 -21 -12 -30 -4 -10 -13 -18 -20 -18 -18 0 -18
-8 1 -26 8 -9 15 -24 15 -34 0 -11 7 -23 16 -28 14 -8 14 -10 0 -21 -13 -11
-16 -9 -22 13 -7 29 -22 34 -30 11 -4 -8 -15 -15 -25 -15 -10 0 -19 -4 -19
-10 0 -5 -8 -10 -17 -10 -10 0 -24 -4 -32 -9 -11 -7 -10 -13 3 -33 15 -22 15
-27 1 -38 -25 -21 -16 -140 11 -140 12 0 12 -3 2 -20 -10 -16 -10 -24 1 -41
11 -18 11 -23 -1 -30 -7 -5 -16 -9 -20 -9 -15 0 -7 -21 17 -45 l24 -25 -24 0
c-14 0 -25 -4 -25 -9 0 -19 -47 -61 -68 -61 -12 0 -23 8 -27 20 -7 21 -20 26
-29 11 -3 -5 6 -16 20 -25 l25 -17 -23 -19 c-20 -17 -21 -21 -8 -30 8 -5 20
-8 27 -5 7 2 15 0 18 -5 4 -6 -1 -10 -9 -10 -10 0 -18 -14 -22 -37 -4 -21 -9
-32 -11 -25 -5 14 -32 16 -34 2 -3 -20 -4 -25 -12 -37 -6 -10 0 -13 22 -13 19
0 31 -5 31 -13 0 -9 -13 -11 -42 -9 -24 3 -40 1 -36 -3 11 -11 142 -34 263
-46 100 -9 616 -13 709 -5 46 4 55 18 84 123 11 38 29 88 41 111 34 66 106
268 129 362 27 112 35 227 22 320 -6 41 -13 102 -16 135 -4 33 -19 98 -34 145
-15 47 -35 145 -45 217 -16 113 -17 151 -7 260 13 153 42 304 83 431 67 202
205 338 380 373 47 9 61 8 94 -7 22 -9 50 -18 63 -19 13 0 26 -5 30 -10 4 -6
16 -10 27 -10 16 0 20 -7 21 -36 1 -20 4 -41 8 -48 4 -7 2 -18 -4 -26 -14 -16
-5 -35 16 -35 8 0 14 -4 14 -10 0 -5 9 -10 19 -10 29 0 34 -27 5 -34 -29 -8
-31 -22 -4 -36 15 -8 20 -21 20 -50 0 -22 -4 -40 -8 -40 -13 0 -42 -89 -31
-95 14 -9 1 -25 -22 -25 -10 0 -19 -4 -19 -10 0 -5 -6 -10 -14 -10 -11 0 -26
-20 -26 -36 0 -2 15 -7 33 -12 37 -9 53 -51 20 -53 -10 0 -13 -3 -5 -6 21 -8
14 -20 -23 -37 -19 -9 -35 -21 -35 -26 0 -6 -7 -10 -15 -10 -8 0 -15 -4 -15
-9 0 -5 -10 -11 -22 -14 -26 -7 -18 -20 14 -22 23 -2 39 -25 16 -25 -8 0 -9
-3 -3 -8 6 -4 15 -16 21 -27 6 -11 20 -24 32 -30 13 -6 22 -19 22 -33 0 -16 5
-22 18 -20 11 2 18 -5 20 -21 2 -13 12 -33 23 -44 10 -12 19 -26 19 -33 0 -7
6 -14 13 -17 6 -2 9 -8 5 -12 -4 -4 -13 -3 -21 3 -8 7 -18 7 -27 2 -10 -7 -11
-10 -2 -10 6 0 12 -11 12 -25 0 -14 5 -25 10 -25 17 0 11 -48 -7 -55 -17 -6
-17 -7 0 -19 9 -7 17 -23 17 -35 0 -15 6 -21 23 -22 l22 0 -22 -11 c-13 -6
-23 -18 -23 -26 0 -9 -6 -12 -16 -8 -29 11 -70 -55 -47 -77 3 -4 15 0 25 10
17 15 18 15 18 -5 0 -17 -6 -22 -25 -22 -17 0 -25 -6 -26 -17 -5 -52 -3 -70 7
-86 7 -10 10 -27 7 -38 -4 -13 0 -19 11 -19 12 0 16 -10 16 -40 0 -42 -2 -44
-65 -65 -19 -7 -19 -8 4 -16 14 -5 44 -7 68 -3 29 4 43 3 43 -5 0 -6 -4 -11
-10 -11 -14 0 -12 -47 3 -54 10 -5 10 -7 0 -12 -7 -3 -13 -12 -13 -19 0 -7 6
-16 13 -19 10 -5 10 -7 0 -12 -15 -7 -17 -44 -3 -44 6 0 10 -5 10 -11 0 -6 -6
-9 -14 -6 -10 4 -12 0 -9 -14 3 -10 0 -19 -6 -19 -6 0 -11 -7 -11 -16 0 -11 5
-14 16 -10 13 5 15 2 11 -16 -4 -14 0 -26 11 -35 16 -12 16 -14 -2 -28 -10 -8
-24 -16 -30 -18 -8 -3 -8 -11 1 -29 6 -14 8 -31 3 -39 -6 -8 -4 -16 3 -21 8
-5 6 -8 -5 -8 -22 0 -24 -26 -3 -34 17 -6 20 -33 4 -38 -7 -2 -3 -17 10 -41
26 -46 25 -43 1 -50 -19 -5 -30 -47 -12 -47 12 0 32 -47 32 -75 0 -14 5 -25
11 -25 8 0 9 -13 5 -40 -4 -25 -2 -40 4 -40 14 0 13 -97 -1 -106 -7 -4 -9 -24
-6 -54 7 -54 0 -68 -19 -42 -11 14 -13 15 -14 2 0 -9 5 -21 12 -28 9 -9 9 -12
0 -12 -7 0 -12 -9 -12 -20 0 -11 -4 -20 -10 -20 -5 0 -10 10 -10 23 -1 21 -1
22 -15 3 -19 -25 -19 -36 0 -36 11 0 13 -10 8 -52 -3 -29 -9 -55 -13 -58 -13
-10 -41 -151 -35 -179 4 -17 -2 -51 -14 -87 -11 -32 -23 -78 -26 -102 -4 -26
-14 -48 -26 -55 -24 -15 -24 -25 1 -47 13 -11 17 -21 10 -25 -5 -3 -10 -1 -10
4 0 29 -19 4 -45 -57 -25 -59 -28 -78 -26 -159 1 -77 -1 -93 -14 -93 -8 0 -15
-9 -15 -19 0 -11 -4 -23 -10 -26 -15 -10 -12 -35 5 -35 19 0 19 -34 0 -53 -8
-8 -11 -17 -8 -21 4 -3 -1 -6 -10 -6 -12 0 -15 -7 -10 -35 5 -30 2 -38 -21
-56 -26 -21 -36 -64 -15 -71 16 -5 0 -35 -22 -41 -10 -3 -19 -12 -19 -20 0
-10 -11 -17 -27 -19 -26 -4 -25 -5 15 -17 23 -8 42 -17 42 -21 0 -4 -18 -12
-40 -19 -38 -11 -53 -35 -29 -43 8 -3 8 -11 -2 -28 -8 -14 -17 -27 -20 -30 -3
-3 -11 -20 -18 -37 -14 -33 -26 -42 -33 -22 -4 11 -38 2 -38 -11 0 -5 8 -10
17 -12 15 -3 15 -5 2 -18 -8 -8 -21 -31 -29 -50 -7 -19 -26 -59 -42 -89 -15
-30 -28 -60 -28 -67 0 -8 -7 -14 -15 -14 -20 0 -19 -15 3 -36 16 -17 17 -16
24 12 6 23 6 20 3 -10 -2 -22 -9 -42 -15 -46 -15 -9 -10 -108 7 -121 11 -10
11 -13 0 -23 -14 -11 -10 -67 25 -310 8 -59 8 -80 -1 -85 -8 -5 0 -31 29 -87
70 -135 100 -246 69 -256 -5 -2 -7 -11 -3 -21 6 -16 7 -16 19 -1 10 15 13 11
23 -29 7 -25 12 -59 12 -76 0 -16 6 -31 13 -34 9 -3 9 -7 -2 -20 -7 -9 -11
-26 -8 -37 4 -14 0 -20 -11 -20 -13 0 -11 -4 6 -16 22 -15 31 -54 12 -54 -5 0
-10 -20 -10 -45 0 -33 4 -45 15 -45 8 0 17 -14 21 -36 4 -24 13 -38 25 -41 24
-7 24 -12 2 -29 -17 -13 -17 -15 2 -29 15 -12 17 -18 8 -23 -17 -10 -18 -482
-2 -482 4 0 10 11 13 25 4 14 11 25 16 25 13 0 13 -17 0 -25 -33 -20 8 -25
211 -25 l221 0 -6 63 c-12 128 -42 969 -53 1494 -6 280 -10 264 61 238 21 -7
54 -11 74 -8 31 5 35 4 30 -13 -4 -17 0 -19 42 -16 43 3 50 1 87 -37 22 -23
47 -41 56 -41 13 0 17 -9 17 -40 0 -33 3 -40 20 -40 17 0 20 7 20 40 0 71 17
43 24 -40 7 -76 9 -80 32 -80 15 0 24 -6 24 -15 0 -11 -11 -15 -40 -15 -23 0
-40 -5 -40 -11 0 -7 -15 -10 -40 -7 -33 3 -40 0 -40 -14 0 -11 -7 -18 -18 -18
-15 0 -18 -11 -21 -79 -2 -72 -1 -79 18 -84 12 -3 21 -13 21 -22 0 -14 8 -16
40 -13 23 2 40 -1 40 -7 0 -6 34 -11 80 -13 50 -1 80 1 80 8 0 6 45 10 120 10
113 0 120 1 120 20 0 19 7 20 120 20 73 0 120 4 120 10 0 6 18 10 40 10 22 0
40 -4 40 -10 0 -5 -18 -10 -40 -10 -33 0 -40 -3 -40 -20 0 -18 7 -20 80 -20
73 0 80 -2 80 -20 0 -17 7 -20 40 -20 22 0 40 5 40 10 0 6 33 10 80 10 l80 0
0 -40 0 -40 40 0 40 0 0 -50 0 -50 -40 0 c-22 0 -40 -4 -40 -10 0 -5 -18 -10
-40 -10 -22 0 -40 -4 -40 -10 0 -5 -18 -10 -40 -10 -38 0 -40 -2 -40 -30 0
-28 -2 -30 -40 -30 -22 0 -40 -4 -40 -10 0 -5 -18 -10 -40 -10 -33 0 -40 -3
-40 -20 0 -18 -7 -20 -80 -20 -47 0 -80 -4 -80 -10 0 -5 -18 -10 -40 -10 -22
0 -40 -4 -40 -10 0 -5 -18 -10 -40 -10 -33 0 -40 -3 -40 -20 0 -17 -7 -20 -40
-20 -29 0 -40 -4 -40 -15 0 -11 -11 -15 -39 -15 -51 0 -88 -36 -93 -90 -3 -38
-2 -40 24 -40 24 0 28 -4 28 -30 0 -18 5 -29 12 -28 7 2 14 -7 16 -19 2 -13
14 -31 28 -42 13 -10 24 -24 24 -30 0 -6 8 -11 18 -11 10 0 25 -9 34 -19 13
-15 25 -18 62 -14 31 4 46 2 46 -6 0 -6 16 -11 35 -11 22 0 38 -6 41 -15 4 -8
12 -15 20 -15 10 0 14 -12 14 -40 0 -22 5 -40 11 -40 7 0 9 -28 7 -80 l-3 -80
28 0 c25 0 27 -3 27 -39 0 -29 -5 -41 -17 -45 -19 -5 -267 -28 -315 -29 -29 0
-38 -12 -15 -20 6 -2 -10 -8 -38 -11 -27 -4 -57 -9 -65 -10 -8 -2 546 -4 1233
-5 l1247 -1 0 5105 0 5105 -53 0 c-56 0 -165 -24 -182 -41 -5 -5 -19 -9 -31
-9 -28 0 -120 -99 -146 -157 -10 -23 -23 -45 -28 -48 -6 -3 -10 -19 -10 -34 0
-23 -7 -31 -37 -44 -76 -32 -114 -42 -121 -31 -8 12 -175 54 -215 54 -20 0
-27 5 -27 19 0 14 -13 24 -47 37 -53 19 -77 39 -87 72 -4 12 -12 22 -17 22 -5
0 -9 6 -9 14 0 8 -6 16 -12 19 -10 3 -10 9 0 26 6 11 12 46 12 76 l0 55 -1800
0 -1800 0 0 -40z m268 -3421 c10 -16 17 -18 25 -10 28 28 50 -3 27 -39 -8 -13
-12 -11 -26 8 -12 18 -19 20 -29 12 -10 -8 -19 -8 -34 0 -24 13 -28 30 -6 30
8 0 15 5 15 10 0 17 14 11 28 -11z m102 -130 c0 -5 -9 -9 -20 -9 -19 0 -26 11
-14 23 8 8 34 -3 34 -14z m-150 -18 c0 -21 -13 -41 -26 -41 -8 0 -14 10 -14
25 0 18 5 25 20 25 11 0 20 -4 20 -9z m40 5 c0 -3 -4 -8 -10 -11 -5 -3 -10 -1
-10 4 0 6 5 11 10 11 6 0 10 -2 10 -4z m168 -48 c19 -19 14 -28 -18 -28 -28 0
-29 2 -18 20 15 23 20 24 36 8z m-163 -58 c-9 -17 -18 -30 -20 -30 -3 0 -5 18
-5 40 0 38 2 40 20 30 19 -10 19 -13 5 -40z m-25 -120 c0 -5 -4 -10 -10 -10
-5 0 -10 5 -10 10 0 6 5 10 10 10 6 0 10 -4 10 -10z m85 -159 c3 -5 -2 -17
-11 -26 -19 -19 -40 -6 -31 19 7 17 32 21 42 7z m-55 -62 c0 -5 -7 -6 -15 -3
-8 4 -15 13 -15 21 0 13 3 13 15 3 8 -7 15 -16 15 -21z m145 12 c3 -5 1 -12
-5 -16 -5 -3 -10 1 -10 9 0 18 6 21 15 7z m-175 -31 c0 -5 -5 -10 -11 -10 -5
0 -7 5 -4 10 3 6 8 10 11 10 2 0 4 -4 4 -10z m77 -12 c-3 -8 -6 -5 -6 6 -1 11
2 17 5 13 3 -3 4 -12 1 -19z m-52 -68 c3 -5 -1 -10 -9 -10 -9 0 -16 5 -16 10
0 6 4 10 9 10 6 0 13 -4 16 -10z m1255 -89 c0 -79 -7 -94 -37 -84 -10 4 -10
10 -1 26 6 12 11 48 11 79 -1 43 3 58 13 58 11 0 14 -18 14 -79z m-1250 -12
c0 -5 -16 -9 -35 -9 -40 0 -45 7 -12 19 24 9 47 4 47 -10z m90 -76 c-11 -17
-11 -17 -6 0 3 10 7 35 8 55 l1 37 4 -37 c2 -21 -1 -46 -7 -55z m-145 -3 c3
-5 34 -10 68 -11 34 0 56 -3 50 -6 -7 -2 -13 -9 -13 -15 0 -6 7 -8 15 -4 16 6
21 -9 5 -19 -5 -3 -7 -12 -3 -20 3 -8 1 -15 -4 -15 -5 0 -13 15 -18 33 -10 31
-12 32 -65 32 -44 0 -55 3 -58 18 -4 18 13 24 23 7z m73 -115 c-10 -8 -68 -13
-68 -5 0 5 12 10 28 12 25 3 48 0 40 -7z m36 -10 c3 -8 1 -15 -4 -15 -6 0 -10
7 -10 15 0 8 2 15 4 15 2 0 6 -7 10 -15z m61 5 c3 -5 -1 -10 -9 -10 -9 0 -16
5 -16 10 0 6 4 10 9 10 6 0 13 -4 16 -10z m-65 -40 c0 -5 -2 -10 -4 -10 -3 0
-8 5 -11 10 -3 6 -1 10 4 10 6 0 11 -4 11 -10z m40 -5 c0 -8 -9 -19 -20 -25
-23 -12 -25 -8 -8 20 15 24 28 26 28 5z m-220 -55 c0 -6 -11 -10 -25 -10 -23
0 -34 18 -19 33 9 8 44 -11 44 -23z m48 -42 c19 -19 14 -33 -13 -33 -16 0 -25
6 -25 16 0 29 18 37 38 17z m-68 -63 c0 -18 26 -20 33 -2 3 6 6 0 6 -14 1 -15
-6 -32 -14 -39 -12 -10 -15 -9 -15 4 0 9 -7 19 -15 22 -17 7 -21 44 -5 44 6 0
10 -7 10 -15z m84 7 c2 -4 1 -14 -4 -21 -10 -17 -31 -5 -23 14 6 16 19 20 27
7z m1696 -7 c0 -8 -4 -15 -9 -15 -5 0 -11 7 -15 15 -3 9 0 15 9 15 8 0 15 -7
15 -15z m-1813 -55 c-4 -17 -2 -30 3 -30 6 0 10 -9 10 -20 0 -11 -4 -20 -10
-20 -5 0 -10 8 -10 18 0 19 -18 42 -32 42 -4 0 -8 -11 -8 -24 0 -15 -7 -26
-20 -29 -11 -3 -20 0 -20 6 0 19 46 67 64 67 9 0 16 5 16 10 0 6 3 10 6 10 4
0 4 -13 1 -30z m1809 -87 l-16 -28 5 28 c3 15 8 39 12 55 l7 27 4 -27 c2 -15
-4 -40 -12 -55z m-1836 7 c0 -5 -4 -10 -10 -10 -5 0 -10 5 -10 10 0 6 5 10 10
10 6 0 10 -4 10 -10z m40 -14 c0 -3 -4 -8 -10 -11 -5 -3 -10 -1 -10 4 0 6 5
11 10 11 6 0 10 -2 10 -4z m1390 -67 c0 -5 -7 -9 -15 -9 -15 0 -20 12 -9 23 8
8 24 -1 24 -14z m-33 -131 c-3 -8 -6 -5 -6 6 -1 11 2 17 5 13 3 -3 4 -12 1
-19z m-1367 2 c0 -5 -4 -10 -10 -10 -5 0 -10 5 -10 10 0 6 5 10 10 10 6 0 10
-4 10 -10z m-130 -55 c-13 -16 -6 -65 9 -65 5 0 7 -9 4 -20 -3 -11 -9 -20 -14
-20 -4 0 -11 -20 -15 -45 -8 -55 -20 -66 -29 -25 -8 37 2 70 21 70 18 0 18 21
-1 46 -18 24 -19 41 -2 59 17 20 44 20 27 0z m73 -65 c-17 -7 -24 -20 -29 -60
-8 -60 -34 -71 -34 -15 0 24 5 35 15 35 9 0 15 9 15 25 0 21 5 25 28 24 26 0
26 -1 5 -9z m257 -14 c0 -3 -4 -8 -10 -11 -5 -3 -10 -1 -10 4 0 6 5 11 10 11
6 0 10 -2 10 -4z m-363 -168 c-3 -8 -6 -5 -6 6 -1 11 2 17 5 13 3 -3 4 -12 1
-19z m103 12 c0 -5 -4 -10 -10 -10 -5 0 -10 5 -10 10 0 6 5 10 10 10 6 0 10
-4 10 -10z m-145 -50 c3 -11 13 -20 21 -20 8 0 14 -8 14 -17 0 -13 -3 -14 -12
-5 -7 7 -25 12 -40 12 -26 0 -27 2 -16 25 14 30 24 32 33 5z m112 -42 c-3 -8
-6 -5 -6 6 -1 11 2 17 5 13 3 -3 4 -12 1 -19z m-1 -93 c-23 -17 -36 -19 -36
-6 0 5 10 12 23 14 12 2 24 5 27 5 3 1 -4 -5 -14 -13z m-96 -25 c0 -11 -6 -20
-14 -20 -8 0 -16 -5 -18 -11 -3 -9 -12 -9 -33 -1 l-30 10 26 1 c14 1 34 10 44
21 10 11 20 20 22 20 1 0 3 -9 3 -20z m-120 -11 c0 -5 -4 -9 -10 -9 -5 0 -10
7 -10 16 0 8 5 12 10 9 6 -3 10 -10 10 -16z m28 -46 c-5 -25 -28 -28 -28 -4 0
12 6 21 16 21 9 0 14 -7 12 -17z m-15 -43 c22 0 28 -3 20 -11 -18 -18 -63 0
-62 25 1 16 2 17 6 4 3 -12 14 -18 36 -18z m-13 -90 c0 -19 -18 -19 -23 -1 -3
14 -1 18 9 14 8 -3 14 -9 14 -13z m222 -22 c-9 -9 -12 -7 -12 12 0 19 3 21 12
12 9 -9 9 -15 0 -24z m68 -28 c0 -5 -5 -10 -11 -10 -5 0 -7 5 -4 10 3 6 8 10
11 10 2 0 4 -4 4 -10z m-270 -69 c0 -53 -14 -75 -24 -38 -11 43 -7 87 9 87 11
0 15 -12 15 -49z m-40 17 c0 -16 -3 -19 -11 -11 -6 6 -8 16 -5 22 11 17 16 13
16 -11z m0 -96 c0 -9 -40 -35 -46 -29 -3 2 -2 12 2 21 6 16 44 23 44 8z m136
-29 c-10 -10 -19 5 -10 18 6 11 8 11 12 0 2 -7 1 -15 -2 -18z m-76 13 c0 -14
-21 -58 -26 -54 -8 8 7 58 17 58 5 0 9 -2 9 -4z m-120 -28 c0 -17 -43 -108
-52 -108 -3 0 -4 9 -1 20 3 11 10 20 15 20 6 0 8 12 5 29 -3 15 -1 33 6 40 14
14 27 14 27 -1z m-65 -193 c0 -10 -6 -20 -12 -22 -8 -3 -13 5 -13 22 0 17 5
25 13 23 6 -3 12 -13 12 -23z m100 5 c3 -5 1 -10 -4 -10 -6 0 -11 5 -11 10 0
6 2 10 4 10 3 0 8 -4 11 -10z m1542 -1072 c-3 -8 -6 -5 -6 6 -1 11 2 17 5 13
3 -3 4 -12 1 -19z m2483 -1678 c0 -5 -18 -10 -40 -10 l-40 0 0 -40 0 -40 40 0
40 0 0 -40 0 -40 -40 0 -40 0 0 40 0 40 -50 0 -50 0 0 40 0 40 50 0 c28 0 50
5 50 10 0 6 18 10 40 10 22 0 40 -4 40 -10z m400 -1291 c0 -4 -7 -6 -15 -3 -8
4 -15 10 -15 15 0 4 7 6 15 3 8 -4 15 -10 15 -15z m-480 1 c0 -5 -19 -9 -42
-9 l-43 2 35 7 c19 4 38 8 43 9 4 0 7 -3 7 -9z"/>
<path d="M7113 7905 c0 -33 2 -45 4 -27 2 18 2 45 0 60 -2 15 -4 0 -4 -33z"/>
<path d="M7112 7820 c0 -14 2 -19 5 -12 2 6 2 18 0 25 -3 6 -5 1 -5 -13z"/>
<path d="M7322 7605 c0 -16 2 -22 5 -12 2 9 2 23 0 30 -3 6 -5 -1 -5 -18z"/>
<path d="M7268 7460 c-24 -22 -23 -50 1 -50 26 0 32 11 23 42 -7 23 -8 24 -24
8z"/>
<path d="M7313 7366 c3 -8 9 -31 13 -50 6 -36 24 -50 24 -19 0 25 -23 83 -33
83 -5 0 -7 -6 -4 -14z"/>
<path d="M5128 7163 c6 -2 18 -2 25 0 6 3 1 5 -13 5 -14 0 -19 -2 -12 -5z"/>
<path d="M5740 6951 c0 -6 5 -13 10 -16 6 -3 10 1 10 9 0 9 -4 16 -10 16 -5 0
-10 -4 -10 -9z"/>
<path d="M5520 6926 c0 -9 5 -16 10 -16 6 0 10 4 10 9 0 6 -4 13 -10 16 -5 3
-10 -1 -10 -9z"/>
<path d="M5746 6901 c-4 -7 -5 -15 -2 -18 9 -9 19 4 14 18 -4 11 -6 11 -12 0z"/>
<path d="M3812 6850 c0 -19 2 -27 5 -17 2 9 2 25 0 35 -3 9 -5 1 -5 -18z"/>
<path d="M5748 6869 c-10 -5 -18 -17 -18 -25 0 -24 41 -13 51 14 9 24 -3 29
-33 11z"/>
<path d="M8240 6714 c0 -10 -12 -14 -40 -14 -38 0 -40 -2 -40 -30 0 -23 -4
-30 -20 -30 -17 0 -20 -7 -20 -39 0 -22 -5 -41 -12 -44 -9 -3 0 -17 23 -40 26
-25 46 -36 76 -38 23 -3 39 -1 37 3 -3 5 8 20 25 34 27 22 31 32 31 75 0 27
-4 49 -10 49 -5 0 -10 17 -10 39 0 30 -4 40 -20 44 -13 3 -20 0 -20 -9z"/>
<path d="M3897 6593 c-16 -163 -1 -303 32 -303 14 0 14 53 0 67 -15 15 -7 129
9 126 15 -4 17 63 2 72 -5 3 -10 24 -10 46 0 59 -27 52 -33 -8z"/>
<path d="M5410 6632 c0 -4 8 -15 19 -24 18 -15 19 -14 30 8 10 22 9 24 -19 24
-17 0 -30 -3 -30 -8z"/>
<path d="M3967 6448 c-4 -116 -3 -176 5 -185 20 -24 28 -2 28 77 0 59 4 79 15
83 23 9 26 -6 24 -109 -1 -72 2 -98 12 -105 24 -15 29 4 30 117 1 121 -7 150
-46 160 -22 5 -24 12 -27 67 -2 47 -7 63 -19 65 -14 2 -17 -19 -22 -170z"/>
<path d="M5106 6601 c-4 -7 -5 -15 -2 -18 9 -9 19 4 14 18 -4 11 -6 11 -12 0z"/>
<path d="M5440 6470 c0 -5 6 -10 14 -10 8 0 18 5 21 10 3 6 -3 10 -14 10 -12
0 -21 -4 -21 -10z"/>
<path d="M4123 6384 c-23 -36 -23 -137 1 -186 30 -61 122 -90 114 -36 -2 15
-13 24 -36 30 -31 8 -63 50 -49 64 3 3 27 -4 52 -15 26 -12 49 -21 51 -21 2 0
4 27 4 59 0 54 -3 63 -34 95 -41 44 -78 48 -103 10z m81 -53 c27 -29 11 -44
-25 -25 -25 12 -28 18 -18 30 15 19 22 18 43 -5z"/>
<path d="M5559 6315 c31 -12 46 -14 54 -6 8 8 5 11 -10 11 -11 0 -36 2 -54 5
-30 5 -29 4 10 -10z"/>
<path d="M4422 6290 c-13 -5 -29 -25 -37 -45 -41 -97 8 -203 102 -221 43 -8
57 4 44 39 -7 18 -15 24 -28 21 -10 -3 -28 4 -41 16 -27 25 -30 90 -6 114 19
19 28 20 53 4 15 -9 23 -9 35 1 22 18 20 33 -8 53 -29 21 -85 30 -114 18z"/>
<path d="M4898 6270 c-9 -6 -22 -26 -28 -45 -8 -24 -18 -35 -31 -35 -24 0 -26
-46 -3 -72 15 -16 15 -26 4 -92 -16 -92 -11 -106 34 -106 33 0 35 2 45 50 6
28 11 63 11 78 0 36 11 51 35 49 16 -2 21 5 23 31 3 27 -1 35 -17 39 -35 9
-25 33 12 33 26 0 36 6 45 24 9 20 7 27 -7 40 -20 18 -96 21 -123 6z"/>
<path d="M4596 6218 c-36 -31 -51 -98 -35 -156 22 -79 106 -121 175 -88 40 19
56 52 57 122 2 78 -42 126 -124 138 -40 6 -51 4 -73 -16z m94 -58 c27 -14 34
-63 15 -99 -18 -36 -49 -41 -66 -10 -14 27 -6 99 13 110 16 11 16 11 38 -1z"/>
<path d="M5094 6223 c-11 -10 -25 -30 -32 -45 -6 -16 -18 -28 -26 -28 -20 0
-27 -60 -8 -67 12 -5 13 -18 7 -67 -4 -34 -8 -77 -9 -96 -1 -32 1 -35 37 -41
21 -3 40 -3 42 1 3 5 10 43 16 86 12 91 14 94 39 94 23 0 42 32 34 54 -3 9
-15 16 -25 16 -10 0 -19 4 -19 9 0 15 27 32 43 25 10 -3 22 4 33 21 23 35 9
47 -58 52 -40 3 -58 0 -74 -14z"/>
<path d="M5462 6135 c-14 -31 -15 -55 -3 -55 8 0 24 70 17 77 -1 2 -8 -8 -14
-22z"/>
<path d="M5278 6108 c-41 -11 -94 -64 -104 -103 -10 -40 5 -93 36 -129 23 -26
40 -35 78 -40 27 -3 63 -3 80 0 28 6 32 10 32 41 0 34 0 34 -41 29 -44 -5 -85
8 -93 30 -7 17 -4 17 84 2 83 -14 90 -10 90 61 0 53 -34 111 -65 111 -11 0
-29 2 -40 4 -11 3 -37 0 -57 -6z m56 -74 c9 -3 16 -13 16 -21 0 -11 -7 -13
-32 -8 -41 9 -46 14 -28 25 18 11 23 12 44 4z"/>
<path d="M3761 5984 c0 -11 3 -14 6 -6 3 7 2 16 -1 19 -3 4 -6 -2 -5 -13z"/>
<path d="M5345 5793 c16 -15 34 -19 84 -18 80 0 94 20 16 22 -30 1 -70 5 -88
8 -32 7 -32 7 -12 -12z"/>
<path d="M5305 5770 c4 -6 11 -8 16 -5 14 9 11 15 -7 15 -8 0 -12 -5 -9 -10z"/>
<path d="M5395 5750 c28 -12 45 -12 45 0 0 6 -15 10 -32 9 -28 0 -30 -2 -13
-9z"/>
<path d="M5333 5703 c-20 -8 -15 -23 7 -23 11 0 20 7 20 15 0 15 -6 17 -27 8z"/>
<path d="M5230 5645 c0 -8 7 -15 15 -15 8 0 15 7 15 15 0 8 -7 15 -15 15 -8 0
-15 -7 -15 -15z"/>
<path d="M880 5630 c0 -5 -16 -10 -37 -10 -29 0 -43 -7 -68 -36 -23 -26 -41
-36 -65 -38 -19 -1 -36 -8 -38 -14 -2 -7 -10 -12 -18 -12 -8 0 -14 -7 -14 -15
0 -12 -17 -15 -90 -15 -71 0 -92 3 -96 15 -5 12 -27 15 -110 15 -63 0 -104 4
-104 10 0 6 -18 10 -40 10 -22 0 -40 -4 -40 -10 0 -5 -18 -10 -40 -10 -29 0
-40 4 -40 15 0 11 -11 15 -40 15 l-40 0 0 -135 c0 -145 3 -151 51 -122 17 10
23 10 26 0 7 -20 163 -18 163 2 0 12 32 24 85 30 64 8 99 22 128 50 25 25 44
33 87 38 53 7 250 -10 260 -22 20 -23 60 -31 164 -31 63 0 117 4 120 9 3 4 27
14 53 21 27 7 60 22 75 32 14 10 36 18 47 18 12 0 21 6 21 15 0 11 11 15 40
15 24 0 40 5 40 12 0 8 31 10 113 6 133 -6 249 3 255 20 2 7 10 12 18 12 10 0
14 12 14 40 l0 40 -120 0 c-100 0 -120 -2 -120 -15 0 -12 -20 -15 -120 -15
-100 0 -120 3 -120 15 0 12 -16 15 -80 15 -58 0 -80 3 -80 13 0 9 -12 11 -40
9 -25 -3 -40 0 -40 7 0 7 -28 11 -80 11 -47 0 -80 -4 -80 -10z"/>
<path d="M3710 5630 c0 -5 4 -10 9 -10 6 0 13 5 16 10 3 6 -1 10 -9 10 -9 0
-16 -4 -16 -10z"/>
<path d="M2062 5614 c-9 -10 -40 -14 -117 -14 -87 0 -105 -3 -105 -15 0 -13
24 -15 160 -15 100 0 160 -4 160 -10 0 -5 17 -10 38 -10 28 1 41 7 55 25 16
23 17 27 3 41 -9 8 -16 11 -16 5 0 -13 -157 -15 -162 -2 -1 5 -9 3 -16 -5z"/>
<path d="M3660 5610 c0 -5 12 -10 28 -9 24 0 25 1 7 9 -27 12 -35 12 -35 0z"/>
<path d="M5260 5565 c0 -8 5 -15 10 -15 6 0 10 7 10 15 0 8 -4 15 -10 15 -5 0
-10 -7 -10 -15z"/>
<path d="M3771 5553 c0 -7 -8 -10 -16 -7 -12 5 -14 -2 -9 -40 6 -43 -3 -76
-36 -138 -6 -10 -10 -40 -10 -68 0 -39 -4 -53 -20 -62 -22 -14 -27 -38 -7 -39
6 0 -4 -6 -23 -13 -19 -6 -34 -17 -33 -23 1 -6 -19 -14 -47 -18 -28 -4 -50
-10 -50 -15 0 -20 184 -17 242 5 13 5 17 30 23 148 3 78 2 174 -3 212 -5 39
-10 65 -11 58z"/>
<path d="M5245 5490 c3 -5 13 -10 21 -10 8 0 14 5 14 10 0 6 -9 10 -21 10 -11
0 -17 -4 -14 -10z"/>
<path d="M5179 5463 c-12 -14 -14 -51 -3 -62 5 -6 34 20 34 31 0 5 -4 7 -9 4
-4 -3 -6 6 -3 19 5 29 0 31 -19 8z"/>
<path d="M5240 5441 c0 -5 7 -16 15 -25 8 -8 15 -23 15 -33 0 -10 4 -24 9 -31
6 -10 10 -10 21 3 7 8 10 19 6 22 -4 4 -12 1 -17 -7 -8 -12 -9 -10 -4 7 9 34
-5 73 -26 73 -10 0 -19 -4 -19 -9z"/>
<path d="M5135 5410 c-3 -5 -1 -10 4 -10 6 0 11 5 11 10 0 6 -2 10 -4 10 -3 0
-8 -4 -11 -10z"/>
<path d="M5170 5369 c0 -6 -9 -8 -22 -3 -20 6 -21 5 -6 -10 19 -18 48 -22 48
-5 0 5 6 7 13 3 8 -5 8 -2 -2 9 -15 19 -31 22 -31 6z"/>
<path d="M5237 5338 c-7 -27 9 -49 29 -41 11 4 12 9 5 16 -6 6 -11 19 -11 29
0 25 -16 22 -23 -4z"/>
<path d="M5134 5304 c3 -9 6 -18 6 -20 0 -2 6 -4 14 -4 20 0 28 27 10 34 -26
10 -36 7 -30 -10z"/>
<path d="M5190 5247 c0 -18 4 -37 9 -42 5 -6 11 -21 13 -34 5 -37 28 -39 28
-2 0 20 -7 35 -20 43 -11 7 -20 16 -20 21 0 4 5 5 10 2 16 -10 70 5 70 19 0 8
-10 11 -29 8 -16 -2 -32 1 -35 7 -14 21 -26 11 -26 -22z"/>
<path d="M5145 5252 c-7 -23 4 -54 16 -46 12 7 12 51 0 59 -5 3 -12 -3 -16
-13z"/>
<path d="M5174 5184 c3 -9 6 -18 6 -20 0 -2 5 -4 10 -4 6 0 10 9 10 20 0 12
-7 20 -16 20 -11 0 -14 -5 -10 -16z"/>
<path d="M5120 5130 c0 -5 12 -10 26 -10 14 0 23 4 19 10 -3 6 -15 10 -26 10
-10 0 -19 -4 -19 -10z"/>
<path d="M5068 4953 c6 -2 18 -2 25 0 6 3 1 5 -13 5 -14 0 -19 -2 -12 -5z"/>
<path d="M3745 4880 c-3 -5 -1 -10 4 -10 6 0 11 5 11 10 0 6 -2 10 -4 10 -3 0
-8 -4 -11 -10z"/>
<path d="M5140 4869 c0 -5 5 -7 10 -4 6 3 10 8 10 11 0 2 -4 4 -10 4 -5 0 -10
-5 -10 -11z"/>
<path d="M5000 4675 c0 -8 9 -15 20 -15 24 0 27 15 4 24 -22 9 -24 8 -24 -9z"/>
<path d="M5026 4603 c9 -52 14 -54 14 -5 0 23 -5 42 -10 42 -7 0 -8 -14 -4
-37z"/>
<path d="M4980 4583 c0 -13 5 -23 10 -23 13 0 13 11 0 30 -8 12 -10 11 -10 -7z"/>
<path d="M5016 4533 l-30 -16 23 -18 c13 -11 19 -19 14 -19 -5 0 -19 -18 -32
-40 -17 -31 -19 -40 -8 -40 8 0 17 7 21 15 7 20 24 19 29 -2 2 -10 3 -3 1 15
-2 23 2 36 15 43 12 8 16 20 13 40 -6 38 -11 40 -46 22z"/>
<path d="M3791 4443 c-2 -61 -5 -62 -233 -67 -53 -1 -62 -11 -22 -26 34 -13
114 -12 194 4 63 12 65 13 68 44 2 18 1 45 -1 60 -3 19 -4 14 -6 -15z"/>
<path d="M4940 4473 c0 -5 4 -13 8 -20 6 -9 11 -7 20 7 11 17 10 20 -8 20 -11
0 -20 -3 -20 -7z"/>
<path d="M4892 4404 c-14 -16 -5 -18 17 -5 7 5 9 11 5 14 -5 3 -15 -1 -22 -9z"/>
<path d="M7401 4394 c0 -11 3 -14 6 -6 3 7 2 16 -1 19 -3 4 -6 -2 -5 -13z"/>
<path d="M4930 4396 c0 -2 7 -6 15 -10 8 -3 15 -1 15 4 0 6 -7 10 -15 10 -8 0
-15 -2 -15 -4z"/>
<path d="M4990 4365 c0 -8 7 -15 15 -15 8 0 15 7 15 15 0 8 -7 15 -15 15 -8 0
-15 -7 -15 -15z"/>
<path d="M4880 4350 c0 -5 5 -10 11 -10 5 0 7 5 4 10 -3 6 -8 10 -11 10 -2 0
-4 -4 -4 -10z"/>
<path d="M4880 4265 c0 -20 28 -50 38 -41 3 4 1 11 -6 15 -7 4 -12 14 -10 21
2 7 -3 15 -9 17 -7 3 -13 -3 -13 -12z"/>
<path d="M4946 4225 c4 -8 8 -15 10 -15 2 0 4 7 4 15 0 8 -4 15 -10 15 -5 0
-7 -7 -4 -15z"/>
<path d="M4867 4193 c-4 -6 0 -16 8 -23 21 -17 28 -8 11 15 -8 11 -15 14 -19
8z"/>
<path d="M6680 3450 c0 -5 5 -10 11 -10 5 0 7 5 4 10 -3 6 -8 10 -11 10 -2 0
-4 -4 -4 -10z"/>
<path d="M6160 1795 c0 -8 5 -15 10 -15 6 0 10 7 10 15 0 8 -4 15 -10 15 -5 0
-10 -7 -10 -15z"/>
<path d="M7500 560 c0 -5 5 -10 10 -10 6 0 10 5 10 10 0 6 -4 10 -10 10 -5 0
-10 -4 -10 -10z"/>
<path d="M1830 162 c-1 -4 -5 -26 -9 -49 -7 -38 -6 -42 13 -47 12 -3 31 -3 42
0 17 5 19 11 15 46 -5 35 -11 43 -33 49 -16 4 -28 4 -28 1z"/>
<path d="M4715 80 c-3 -5 -1 -10 4 -10 6 0 11 5 11 10 0 6 -2 10 -4 10 -3 0
-8 -4 -11 -10z"/>
<path d="M4668 3 c17 -2 47 -2 65 0 17 2 3 4 -33 4 -36 0 -50 -2 -32 -4z"/>
<path d="M4808 3 c7 -3 16 -2 19 1 4 3 -2 6 -13 5 -11 0 -14 -3 -6 -6z"/>
</g>
</svg>
