<?xml version="1.0" encoding="utf-8"?>
<!-- Generator: Adobe Illustrator 16.0.0, SVG Export Plug-In . SVG Version: 6.00 Build 0)  -->
<!DOCTYPE svg PUBLIC "-//W3C//DTD SVG 1.1//EN" "http://www.w3.org/Graphics/SVG/1.1/DTD/svg11.dtd">
<svg version="1.1" id="Layer_1" xmlns="http://www.w3.org/2000/svg" xmlns:xlink="http://www.w3.org/1999/xlink" x="0px" y="0px"
	 width="1000px" height="1000px" viewBox="0 0 1000 1000" enable-background="new 0 0 1000 1000" xml:space="preserve">
<g>
	<g>
		<path fill="#FFFFFF" d="M528.155,497.586c-0.045-23.989-2.095-49.092-15.987-69.483c-11.489-16.863-30.018-26.867-48.813-33.476
			c-20.54-7.222-42.492-10.547-64.163-11.808c-20.778-1.209-41.961-0.216-62.338,4.196c-20.131,4.359-37.933,14.627-54.364,26.799
			c-19.028,14.094-35.975,31.546-47.987,52.04c-11.166,19.05-16.827,41.142-12.768,63.088c3.852,20.826,17.568,39.402,31.821,54.495
			c29.056,30.769,68.694,49.479,107.892,63.734C402.86,662.233,445.83,672.313,488,684.924c11.86,3.547,23.65,7.342,35.265,11.625
			c3.032,1.117,4.328-3.716,1.33-4.822c-80.259-29.594-170.899-38.574-241.952-89.625c-17.004-12.217-32-27.26-43.42-44.844
			c-13.293-20.472-17.246-43.259-10.213-66.765c6.984-23.343,23.056-43.378,40.696-59.671c16.171-14.937,35.967-29.12,57.099-35.957
			c18.863-6.103,39.234-7.566,58.943-7.471c22.042,0.107,44.198,2.835,65.464,8.685c19.469,5.354,38.741,13.864,52.426,29.167
			c17.454,19.517,19.47,47.422,19.517,72.34C523.161,500.811,528.161,500.811,528.155,497.586L528.155,497.586z"/>
	</g>
</g>
<g>
	<g>
		<path fill="#00AEEF" d="M343.331,619.537c6.459-8.524,17.059-12.602,27.005-15.431c10.413-2.962,21.224-4.395,31.929-5.837
			c23.264-3.134,46.774-7.113,69.389-13.476c22.759-6.402,44.158-16.788,61.473-33.104c18.29-17.235,32.893-41.043,36.986-66.038
			c3.683-22.482-3.045-44.605-16.617-62.611c-11.792-15.644-28.109-27.278-44.34-37.941c-31.399-20.628-65.764-37.512-101.44-49.31
			c-33.432-11.055-71.997-18.859-106.5-8.008c-35.098,11.038-55.691,44.936-59.6,80.329c-4.003,36.25,18.613,65.206,46.805,84.949
			c31.708,22.205,69.404,35.263,105.861,47.32c25.546,8.448,52.047,12.619,78.25,18.515c28.89,6.499,60.662,13.872,84.8,31.948
			c9.209,6.896,16.932,16.575,18.298,28.309c1.498,12.858-4.319,27.162-12.351,36.999c-16.376,20.058-46.162,25.484-70.501,27.236
			c-32.963,2.372-66.566-2.279-98.278-11.243c-28.87-8.16-58.702-20.538-80.802-41.404c-8.616-8.135-15.883-18.001-19.244-29.479
			c-3.78-12.909-1.173-26.331,5.126-38.007c8.493-15.742,23.417-27.061,38.637-35.802c17.288-9.929,36.214-16.836,55.216-22.674
			c32.665-10.035,66.384-16.736,99.481-25.202c37.525-9.598,76.062-19.585,109.66-39.501c15.366-9.109,29.479-20.813,39.261-35.905
			c8.818-13.604,15.505-32.965,9.261-48.826c-5.85-14.859-22.182-21.265-36.566-24.686c-17.449-4.149-35.742-5-53.573-6.331
			c-48.816-3.643-131.266-14.216-149.781,46.73c-0.94,3.093,3.887,4.405,4.821,1.329c12.022-39.573,56.871-45.87,92.504-45.936
			c17.833-0.033,35.596,1.618,53.361,2.943c18.172,1.356,36.741,2.294,54.45,6.855c15.856,4.083,31.374,12.816,32.14,30.927
			c0.771,18.252-10.153,36.174-22.462,48.74c-27.423,27.996-68.478,40.785-105.203,51.105
			c-32.558,9.149-65.505,16.496-98.315,24.613c-36.634,9.063-75.556,20.308-105.563,44.176
			c-22.025,17.519-36.75,46.112-24.788,73.655c10.608,24.426,35.415,40.473,58.511,51.592
			c29.618,14.259,62.212,22.448,94.791,26.112c29.543,3.322,61.314,3.125,89.633-6.939c23.949-8.512,42.935-27.012,45.61-53.349
			c2.697-26.543-21.665-43.41-42.908-53.064c-28.456-12.932-59.725-19.104-90.179-25.329c-12.333-2.521-24.752-4.844-36.907-8.148
			c-15.76-4.285-31.294-10.085-46.604-15.736c-35.201-12.996-73.086-29.172-98.304-58.054c-11.38-13.034-18.617-29.13-19.517-46.489
			c-1.032-19.911,6.028-40.909,16.697-57.531c19.578-30.5,56.28-37.189,89.982-33.919c39.119,3.795,77.221,18.984,111.97,36.673
			c15.74,8.012,31.047,16.922,45.709,26.771c17.805,11.96,34.895,25.445,45.739,44.33c27.144,47.27-7.374,104.235-49.611,128.759
			c-28.359,16.466-62.012,21.105-93.813,26.581c-24.267,4.179-57.487,3.615-73.908,25.287
			C337.065,619.585,341.41,622.072,343.331,619.537L343.331,619.537z"/>
	</g>
</g>
</svg>
